<?xml version="1.0" encoding="iso-8859-1"?>
<!-- Uploaded to: SVG Repo, www.svgrepo.com, Generator: SVG Repo Mixer Tools -->
<svg fill="#000000" height="800px" width="800px" version="1.1" id="Layer_1" xmlns="http://www.w3.org/2000/svg" xmlns:xlink="http://www.w3.org/1999/xlink" 
	 viewBox="0 0 508 508" xml:space="preserve">
<g>
	<g>
		<path d="M371.5,56.4h-235c-7.8,0-14.1,6.3-14.1,14.1v163.6c0,7.8,6.3,14.1,14.1,14.1h234.9c7.8,0,14.1-6.3,14.1-14.1V70.6
			C385.6,62.8,379.3,56.4,371.5,56.4z M357.5,220h-0.1h-89.2v-72.1c0-7.8-6.3-14.1-14.1-14.1c-7.8,0-14.1,6.3-14.1,14.1V220h-89.2
			V84.7h206.7V220z"/>
	</g>
</g>
<g>
	<g>
		<path d="M493.9,91.1c-7.8,0-14.1,6.3-14.1,14.1v261l-37.8,25V42.3C442,19,423,0,399.7,0H108.3C85,0,66,19,66,42.3v348.9l-37.8-25
			v-261c0-7.8-6.3-14.1-14.1-14.1C6.3,91.1,0,97.5,0,105.2v268.6c0,4.7,2.4,9.2,6.3,11.8L66,425.1v40.6C66,489,85,508,108.3,508
			h291.4c23.3,0,42.3-19,42.3-42.3v-40.6l59.7-39.5c3.9-2.6,6.3-7,6.3-11.8V105.2C508,97.5,501.7,91.1,493.9,91.1z M413.8,465.7
			L413.8,465.7c0,7.8-6.3,14.1-14.1,14.1H108.3c-7.8,0-14.1-6.3-14.1-14.1V42.3c0-7.8,6.3-14.1,14.1-14.1h291.4
			c7.8,0,14.1,6.3,14.1,14.1V465.7z"/>
	</g>
</g>
<g>
	<g>
		<path d="M195.7,399.6c-2.1-3.4-3.9-7-5.4-10.6c-2.9-7.2-11.1-10.7-18.4-7.8c-7.2,2.9-10.7,11.1-7.8,18.4
			c2.1,5.2,4.7,10.3,7.7,15.1c2.7,4.3,10.1,10.3,19.5,4.4C197.9,415,199.9,406.2,195.7,399.6z"/>
	</g>
</g>
<g>
	<g>
		<path d="M253,282.6c-1.2-7.7-8.5-12.9-16.2-11.7c-5.6,0.9-11.1,2.3-16.4,4.1c-7.4,2.6-11.3,10.7-8.6,18c4.5,12.2,16.4,9.3,18,8.7
			c3.7-1.3,7.6-2.3,11.5-2.9C249,297.6,254.2,290.3,253,282.6z"/>
	</g>
</g>
<g>
	<g>
		<path d="M188.8,312.4c-6.8-3.8-15.4-1.5-19.2,5.3c-2.8,4.9-5.1,10.1-7,15.4c-2.6,7.4,1.2,15.6,8.6,18c10,3.2,15.9-2.9,18-8.7
			c1.3-3.7,2.9-7.4,4.9-10.8C197.9,324.8,195.6,316.2,188.8,312.4z"/>
	</g>
</g>
<g>
	<g>
		<path d="M244.4,430c-3.9-0.4-7.8-1.2-11.6-2.4c-7.5-2.2-15.3,2-17.6,9.5c-2.2,7.5,2,15.5,9.5,17.6c12.9,3.5,17.6,3.5,18.2,3.5
			c7.1,0,13.2-5.3,14-12.5C257.7,437.9,252.1,430.9,244.4,430z"/>
	</g>
</g>
<g>
	<g>
		<path d="M318.6,410.9c-5.5-5.4-14.5-5.4-20,0.2c-2.8,2.8-5.9,5.4-9.1,7.6c-6.4,4.4-8.1,13.3-3.5,19.6c6.6,9.2,17.2,5.3,19.6,3.5
			c10.8-8,13-10.9,13.1-11C324.2,425.3,324.1,416.4,318.6,410.9z"/>
	</g>
</g>
<g>
	<g>
		<path d="M345.7,353.4c-1-7.7-8-13.3-15.7-12.4c-7.7,0.9-13.3,7.9-12.4,15.6c0.8,6.7,0.4,10.4,0.3,11.9c-0.5,7.8,4,15,14.1,15
			c7.4,0,13.3-5.7,14.1-13.2C346.7,364.9,346.1,357,345.7,353.4z"/>
	</g>
</g>
<g>
	<g>
		<path d="M315.3,294.4c-4.2-3.8-8.7-7.2-13.5-10.2c-6.6-4.1-15.3-2.1-19.5,4.5c-4.1,6.6-2.1,15.3,4.5,19.5c3.4,1.9,6.6,4.4,9.5,7
			c2.7,2.5,12.3,6.7,19.9-0.9C321.7,308.8,321,299.6,315.3,294.4z"/>
	</g>
</g>
<g>
	<g>
		<path d="M286.3,332.2c-5.5-5.5-14.5-5.5-20,0l-44.6,44.6c-5.5,5.5-5.5,14.4,0,20c6.1,6.1,14.8,5.1,20,0l44.6-44.6
			C291.8,346.7,291.8,337.8,286.3,332.2z"/>
	</g>
</g>
</svg>