<?xml version="1.0" encoding="iso-8859-1"?>
<!-- Uploaded to: SVG Repo, www.svgrepo.com, Generator: SVG Repo Mixer Tools -->
<!DOCTYPE svg PUBLIC "-//W3C//DTD SVG 1.1//EN" "http://www.w3.org/Graphics/SVG/1.1/DTD/svg11.dtd">
<svg fill="#000000" version="1.1" id="Capa_1" xmlns="http://www.w3.org/2000/svg" xmlns:xlink="http://www.w3.org/1999/xlink" 
	 width="800px" height="800px" viewBox="0 0 585.917 585.917"
	 xml:space="preserve">
<g>
	<g>
		<path d="M371.92,494.575c0-12.717-9.884-23.062-22.035-23.062h-113.85c-12.151,0-22.035,10.346-22.035,23.062
			c0,12.718,9.884,23.063,22.035,23.063h113.85C362.033,517.639,371.92,507.293,371.92,494.575z"/>
		<path d="M247.862,539.79c-13.397,0-24.296,10.346-24.296,23.063c0,12.717,10.899,23.063,24.296,23.063h91.429
			c13.397,0,24.297-10.347,24.297-23.063c0-12.718-10.899-23.063-24.297-23.063H247.862z"/>
		<path d="M292.96,75.698c-83.238,0-150.959,67.721-150.959,150.959c0,37.742,18.614,75.117,36.616,111.262
			c17.626,35.386,34.272,68.813,34.272,101.408c0,5.07,4.109,9.18,9.18,9.18h141.779c5.07,0,9.181-4.109,9.181-9.18
			c0-33.963,17.628-69.082,34.676-103.042c17.803-35.469,36.215-72.146,36.215-109.628
			C443.919,143.419,376.198,75.698,292.96,75.698z"/>
		<path d="M117.19,94.817c-1.408-0.814-2.996-1.233-4.593-1.233c-0.796,0-1.595,0.104-2.375,0.312
			c-2.353,0.63-4.36,2.169-5.575,4.281L86.41,129.799c-2.534,4.392-1.025,10.006,3.366,12.537l32.727,18.874
			c1.411,0.814,2.993,1.227,4.587,1.227c0.945,0,1.894-0.147,2.812-0.444c2.466-0.792,4.483-2.595,5.551-4.954
			c4.657-10.3,10.517-20.367,17.417-29.924c1.521-2.105,2.078-4.755,1.533-7.295c-0.542-2.54-2.136-4.728-4.382-6.028L117.19,94.817
			z"/>
		<path d="M275.689,56.625c2.053-0.214,4.085-0.493,6.114-0.771c3.874-0.529,7.531-1.031,11.157-1.031s7.283,0.502,11.156,1.031
			c2.029,0.279,4.062,0.557,6.114,0.771c0.321,0.034,0.643,0.052,0.961,0.052c2.255,0,4.449-0.833,6.142-2.359
			c1.934-1.741,3.038-4.22,3.038-6.821V9.18c0-5.071-4.109-9.18-9.18-9.18h-36.463c-5.07,0-9.18,4.109-9.18,9.18v38.317
			c0,2.601,1.105,5.083,3.039,6.821c1.695,1.527,3.886,2.359,6.142,2.359C275.047,56.677,275.368,56.659,275.689,56.625z"/>
		<path d="M184.816,89.413c0.637,0.135,1.279,0.202,1.919,0.202c1.912,0,3.797-0.6,5.373-1.738
			c9.55-6.897,19.618-12.757,29.924-17.417c2.362-1.068,4.162-3.084,4.957-5.551c0.796-2.466,0.508-5.156-0.786-7.399
			l-18.874-32.727c-1.699-2.947-4.786-4.596-7.962-4.596c-1.554,0-3.133,0.395-4.578,1.227l-31.622,18.231
			c-2.111,1.218-3.65,3.225-4.281,5.578c-0.63,2.354-0.3,4.859,0.918,6.971l18.981,32.834
			C180.086,87.277,182.277,88.872,184.816,89.413z"/>
		<path d="M481.275,98.177c-1.218-2.112-3.222-3.651-5.575-4.281c-0.78-0.208-1.582-0.312-2.375-0.312
			c-1.6,0-3.186,0.419-4.593,1.233l-32.834,18.978c-2.246,1.297-3.84,3.488-4.382,6.028c-0.542,2.54,0.016,5.19,1.533,7.295
			c6.965,9.645,12.837,19.712,17.454,29.923c1.068,2.362,3.085,4.162,5.554,4.958c0.918,0.293,1.867,0.44,2.812,0.44
			c1.594,0,3.18-0.416,4.59-1.23l32.69-18.874c4.388-2.534,5.894-8.146,3.362-12.537L481.275,98.177z"/>
		<path d="M363.912,70.457c10.353,4.697,20.413,10.548,29.902,17.39c1.576,1.135,3.458,1.732,5.37,1.732
			c0.643,0,1.285-0.067,1.925-0.202c2.537-0.544,4.728-2.139,6.025-4.385l18.944-32.797c2.537-4.391,1.034-10.003-3.356-12.54
			l-31.552-18.231c-1.408-0.813-2.996-1.23-4.594-1.23c-0.795,0-1.594,0.104-2.374,0.312c-2.354,0.634-4.357,2.17-5.575,4.281
			l-18.874,32.727c-1.295,2.243-1.579,4.927-0.787,7.396C359.757,67.372,361.553,69.389,363.912,70.457z"/>
		<path d="M64.993,209.735v36.466c0,5.07,4.109,9.18,9.18,9.18h38.388c2.623,0,5.12-1.12,6.861-3.078s2.564-4.569,2.258-7.173
			c-0.214-1.833-0.475-3.66-0.734-5.486c-0.579-4.076-1.126-7.925-1.126-11.671c0-3.626,0.502-7.283,1.031-11.157
			c0.279-2.029,0.554-4.064,0.771-6.117c0.272-2.589-0.566-5.168-2.308-7.102s-4.22-3.039-6.821-3.039h-38.32
			C69.103,200.556,64.993,204.665,64.993,209.735z"/>
		<path d="M511.747,200.556H473.43c-2.602,0-5.083,1.104-6.824,3.039c-1.741,1.934-2.579,4.516-2.307,7.105
			c0.217,2.05,0.492,4.079,0.768,6.105c0.529,3.877,1.031,7.537,1.031,11.166c0,3.745-0.548,7.595-1.126,11.67
			c-0.26,1.827-0.517,3.654-0.734,5.487c-0.306,2.604,0.514,5.214,2.259,7.173c1.74,1.958,4.237,3.078,6.86,3.078h38.388
			c5.07,0,9.18-4.109,9.18-9.18v-36.463C520.927,204.665,516.817,200.556,511.747,200.556z"/>
		<path d="M438.892,343.85l29.841,17.233c1.407,0.814,2.993,1.23,4.59,1.23c0.796,0,1.595-0.104,2.375-0.312
			c2.353-0.63,4.357-2.17,5.575-4.277l18.231-31.586c1.218-2.108,1.548-4.614,0.915-6.968c-0.631-2.353-2.173-4.357-4.281-5.572
			L463.02,294.51c-1.411-0.814-2.993-1.227-4.584-1.227c-1.007,0-2.014,0.164-2.986,0.498c-2.51,0.863-4.522,2.772-5.521,5.229
			c-4.406,10.866-9.352,21.922-14.697,32.858C433.117,336.205,434.715,341.438,438.892,343.85z"/>
		<path d="M130.349,293.861c-0.979-0.34-1.995-0.508-3.008-0.508c-1.594,0-3.176,0.412-4.587,1.227l-32.975,19.015
			c-2.108,1.215-3.65,3.223-4.281,5.572c-0.63,2.354-0.303,4.859,0.915,6.968l18.231,31.585c1.701,2.947,4.786,4.594,7.959,4.594
			c1.555,0,3.13-0.396,4.575-1.228l29.593-17.057c4.171-2.405,5.774-7.619,3.678-11.952c-5.429-11.221-10.337-22.308-14.587-32.95
			C134.877,296.654,132.864,294.736,130.349,293.861z"/>
	</g>
</g>
</svg>